# xmcd
#
# Track frame offsets:
#	150
#	16115
#	35953
#	52871
#	64663
#	80899
#	97472
#	114742
#	130521
#	145459
#	161156
#	177308
#	194960
#	210709
#	225588
#	241900
#	260877
#	277686
#	293488
#
# Disc length: 4109 seconds
#
# Revision: 1
# Processed by: cddbd v1.5.2PL0 Copyright (c) Steve Scherf et al.
# Submitted via: audiograbber 1.83.01
#
DISCID=23100b13
DTITLE=Various Artist - Hott Country 190
DYEAR=2011
DGENRE=Country
TTITLE0=Paul Brandt - Together Again
TTITLE1=Faith Hill - Come Home
TTITLE2=George Strait - Love's Gonna Make It Alright
TTITLE3=Eric Church - Keep On
TTITLE4=Farm - Home Sweet Home
TTITLE5=Toby Keith - Red Solo Cup
TTITLE6=Lady Antebellum - Love I've Found In You
TTITLE7=Kira Isabella - A Real Good Radio
TTITLE8=Trace Adkins - Million Dollar View
TTITLE9=Dallas Smith - Somebody Somewhere
TTITLE10=Gloriana - Kissed You Good Night
TTITLE11=Stellas - In This House
TTITLE12=Terri Clark - Wrecking Ball
TTITLE13=Hey Romeo - Hello
TTITLE14=Eli Young Band - Even If It Breaks Your Heart
TTITLE15=Miranda Lambert - Over You
TTITLE16=Uncle Kracker - My Hometown
TTITLE17=Dean Brody - The Woodshed Is Full
TTITLE18=Gord Bamford - Baseball Glove
EXTD=December 2011
EXTT0=
EXTT1=
EXTT2=
EXTT3=
EXTT4=
EXTT5=
EXTT6=
EXTT7=
EXTT8=
EXTT9=
EXTT10=
EXTT11=
EXTT12=
EXTT13=
EXTT14=
EXTT15=
EXTT16=
EXTT17=
EXTT18=
PLAYORDER=
